#tb 0: 1/1
#media_type 0: video
#codec_id 0: rawvideo
#dimensions 0: 319x240
#sar 0: 1/1
0,          0,          0,        1,   306240, 0x451d10c9
0,          1,          1,        1,   306240, 0x375396a8
0,          2,          2,        1,   306240, 0x253b98ca
0,          3,          3,        1,   306240, 0xc230db8d
0,          4,          4,        1,   306240, 0xe109593f
